# xmcd CD database file
#
# Track frame offsets:
#	150
#	21972
#	43295
#	65220
#	83742
#	91417
#	112422
#	136705
#	157577
#	175302
#	198067
#
# Disc length: 3023 seconds
#
# Revision: 9
# Processed by: cddbd v1.5.2PL0 Copyright (c) Steve Scherf et al.
# Submitted via: CDex 1.70beta2
#
DISCID=900bcd0b
DTITLE=相川七瀬 - crimson
DYEAR=1998
DGENRE=Rock
TTITLE0=○○○○？
TTITLE1=Nostalgia
TTITLE2=さよならを聴かせて
TTITLE3=眠れない夜
TTITLE4=Night Wave
TTITLE5=Bad Girls
TTITLE6=fragile
TTITLE7=Velvet moon
TTITLE8=たまんない瞬間
TTITLE9=彼女と私の事情
TTITLE10=優しいうた
EXTD=YEAR: 1998
EXTT0=
EXTT1=
EXTT2=
EXTT3=
EXTT4=
EXTT5=
EXTT6=
EXTT7=
EXTT8=
EXTT9=
EXTT10=
PLAYORDER=
